# xmcd CD database file
#
# Track frame offsets:
#	150
#	19502
#	38755
#	55025
#	87630
#	107502
#	125952
#	159202
#	181822
#	193412
#	224705
#
# Disc length: 3342 seconds
#
# Revision: 2
# Processed by: cddbd v1.5.2PL0 Copyright (c) Steve Scherf et al.
# Submitted via: CDex 1.51
#
DISCID=980d0c0b
DTITLE=Carey Bell Meets The Cat - Breakdown Blues Live
DYEAR=1998
DGENRE=Blues
TTITLE0=Shuffle in "E" (Live)
TTITLE1=Short Dress Woman (Live)
TTITLE2=I'm Dangerous Girl (Live)
TTITLE3=I Want You To Love Me (Live)
TTITLE4=Blue Monday (Live)
TTITLE5=Brought Up The Hard Way (Live)
TTITLE6=She's Nineteen Years Old (Live)
TTITLE7=You Get Me Nowhere (Live)
TTITLE8=Too Late (Live)
TTITLE9=Lumbago Blues (Live)
TTITLE10=Last Night (Live)
EXTD=YEAR: 1998
EXTT0=
EXTT1=
EXTT2=
EXTT3=
EXTT4=
EXTT5=
EXTT6=
EXTT7=
EXTT8=
EXTT9=
EXTT10=
PLAYORDER=
